<svg width="132" height="49" viewBox="0 0 132 49" fill="none" xmlns="http://www.w3.org/2000/svg">
<path d="M10.976 2.728C14.016 2.728 16.56 3.016 18.608 3.592C20.688 4.136 22.24 5.048 23.264 6.328C24.32 7.576 24.848 9.272 24.848 11.416C24.848 12.696 24.64 13.864 24.224 14.92C23.808 15.976 23.2 16.84 22.4 17.512C21.632 18.184 20.688 18.616 19.568 18.808V19.048C20.72 19.272 21.76 19.672 22.688 20.248C23.616 20.824 24.352 21.656 24.896 22.744C25.44 23.832 25.712 25.272 25.712 27.064C25.712 29.144 25.2 30.936 24.176 32.44C23.184 33.912 21.744 35.048 19.856 35.848C17.968 36.616 15.728 37 13.136 37H0.32V2.728H10.976ZM11.792 16.312C13.904 16.312 15.36 15.976 16.16 15.304C16.992 14.632 17.408 13.656 17.408 12.376C17.408 11.064 16.928 10.12 15.968 9.544C15.008 8.968 13.488 8.68 11.408 8.68H7.568V16.312H11.792ZM7.568 22.072V31H12.32C14.496 31 16.016 30.584 16.88 29.752C17.744 28.888 18.176 27.752 18.176 26.344C18.176 25.48 17.984 24.728 17.6 24.088C17.248 23.448 16.624 22.952 15.728 22.6C14.832 22.248 13.616 22.072 12.08 22.072H7.568ZM39.146 10.792V37H31.994V10.792H39.146ZM35.594 0.519998C36.65 0.519998 37.562 0.775998 38.33 1.288C39.098 1.768 39.482 2.68 39.482 4.024C39.482 5.336 39.098 6.248 38.33 6.76C37.562 7.272 36.65 7.528 35.594 7.528C34.506 7.528 33.578 7.272 32.81 6.76C32.074 6.248 31.706 5.336 31.706 4.024C31.706 2.68 32.074 1.768 32.81 1.288C33.578 0.775998 34.506 0.519998 35.594 0.519998ZM61.499 10.312C64.315 10.312 66.571 11.08 68.267 12.616C69.963 14.12 70.811 16.552 70.811 19.912V37H63.659V21.688C63.659 19.8 63.323 18.392 62.651 17.464C61.979 16.504 60.907 16.024 59.435 16.024C57.259 16.024 55.771 16.776 54.971 18.28C54.171 19.752 53.771 21.88 53.771 24.664V37H46.619V10.792H52.091L53.051 14.152H53.435C54.011 13.256 54.715 12.536 55.547 11.992C56.379 11.416 57.307 11 58.331 10.744C59.355 10.456 60.411 10.312 61.499 10.312Z" fill="white"/>
<path d="M86.6619 10.312C88.2619 10.312 89.7019 10.632 90.9819 11.272C92.2619 11.912 93.3499 12.872 94.2459 14.152H94.4379L95.0139 10.792H101.062V37.048C101.062 39.544 100.566 41.64 99.5739 43.336C98.6139 45.032 97.1579 46.312 95.2059 47.176C93.2539 48.072 90.8379 48.52 87.9579 48.52C86.1019 48.52 84.3739 48.408 82.7739 48.184C81.2059 47.96 79.6699 47.56 78.1659 46.984V41.272C79.2539 41.72 80.3419 42.088 81.4299 42.376C82.5499 42.696 83.6859 42.92 84.8379 43.048C86.0219 43.208 87.2059 43.288 88.3899 43.288C90.2459 43.288 91.6219 42.792 92.5179 41.8C93.4459 40.808 93.9099 39.32 93.9099 37.336V36.808C93.9099 36.264 93.9259 35.704 93.9579 35.128C94.0219 34.552 94.0699 34.04 94.1019 33.592H93.9099C93.0139 34.968 91.9419 35.96 90.6939 36.568C89.4459 37.176 88.0379 37.48 86.4699 37.48C83.3659 37.48 80.9339 36.296 79.1739 33.928C77.4459 31.528 76.5819 28.2 76.5819 23.944C76.5819 21.064 76.9819 18.616 77.7819 16.6C78.5819 14.552 79.7339 13 81.2379 11.944C82.7739 10.856 84.5819 10.312 86.6619 10.312ZM88.9179 16.12C87.7979 16.12 86.8539 16.424 86.0859 17.032C85.3499 17.608 84.7899 18.488 84.4059 19.672C84.0539 20.824 83.8779 22.28 83.8779 24.04C83.8779 26.664 84.2939 28.632 85.1259 29.944C85.9579 31.224 87.2539 31.864 89.0139 31.864C89.9419 31.864 90.7419 31.752 91.4139 31.528C92.0859 31.272 92.6299 30.872 93.0459 30.328C93.4939 29.752 93.8299 29.016 94.0539 28.12C94.2779 27.224 94.3899 26.136 94.3899 24.856V23.992C94.3899 22.104 94.1979 20.584 93.8139 19.432C93.4299 18.28 92.8379 17.448 92.0379 16.936C91.2379 16.392 90.1979 16.12 88.9179 16.12ZM119.341 10.312C121.773 10.312 123.853 10.776 125.581 11.704C127.341 12.632 128.701 13.976 129.661 15.736C130.621 17.496 131.101 19.656 131.101 22.216V25.672H114.205C114.269 27.688 114.861 29.272 115.981 30.424C117.133 31.576 118.717 32.152 120.733 32.152C122.429 32.152 123.965 31.992 125.341 31.672C126.717 31.32 128.141 30.792 129.613 30.088V35.608C128.333 36.248 126.973 36.712 125.533 37C124.125 37.32 122.413 37.48 120.397 37.48C117.773 37.48 115.453 37 113.437 36.04C111.421 35.048 109.837 33.56 108.685 31.576C107.533 29.592 106.957 27.096 106.957 24.088C106.957 21.016 107.469 18.472 108.493 16.456C109.549 14.408 111.005 12.872 112.861 11.848C114.717 10.824 116.877 10.312 119.341 10.312ZM119.389 15.4C118.013 15.4 116.861 15.848 115.933 16.744C115.037 17.64 114.509 19.032 114.349 20.92H124.381C124.381 19.864 124.189 18.92 123.805 18.088C123.453 17.256 122.909 16.6 122.173 16.12C121.437 15.64 120.509 15.4 119.389 15.4Z" fill="#9B51E0"/>
</svg>
