<svg width="25" height="25" viewBox="0 0 25 25" fill="none" xmlns="http://www.w3.org/2000/svg">
<path d="M21.2296 12.2866C21.2296 17.3115 17.1561 21.385 12.1312 21.385C7.10633 21.385 3.03284 17.3115 3.03284 12.2866C3.03284 7.26174 7.10633 3.18825 12.1312 3.18825C17.1561 3.18825 21.2296 7.26174 21.2296 12.2866Z" stroke="#131A29" stroke-width="2.02187" stroke-linecap="round" stroke-linejoin="round"/>
<path d="M15.1656 11.6137C15.5031 11.8387 15.6718 11.9512 15.7306 12.093C15.782 12.217 15.782 12.3563 15.7306 12.4803C15.6718 12.6221 15.5031 12.7346 15.1656 12.9596L11.3667 15.4921C10.9583 15.7644 10.7541 15.9006 10.5847 15.8905C10.4372 15.8817 10.3009 15.8087 10.2117 15.6909C10.1094 15.5556 10.1094 15.3101 10.1094 14.8192V9.75407C10.1094 9.26318 10.1094 9.01773 10.2117 8.88243C10.3009 8.76457 10.4372 8.69163 10.5847 8.68282C10.7541 8.67271 10.9583 8.80885 11.3667 9.08115L15.1656 11.6137Z" stroke="#131A29" stroke-width="2.02187" stroke-linecap="round" stroke-linejoin="round"/>
</svg>
