<svg width="142" height="41" viewBox="0 0 142 41" fill="none" xmlns="http://www.w3.org/2000/svg">
<path d="M7.488 17.864C9.008 17.864 10.28 18.008 11.304 18.296C12.344 18.568 13.12 19.024 13.632 19.664C14.16 20.288 14.424 21.136 14.424 22.208C14.424 22.848 14.32 23.432 14.112 23.96C13.904 24.488 13.6 24.92 13.2 25.256C12.816 25.592 12.344 25.808 11.784 25.904V26.024C12.36 26.136 12.88 26.336 13.344 26.624C13.808 26.912 14.176 27.328 14.448 27.872C14.72 28.416 14.856 29.136 14.856 30.032C14.856 31.072 14.6 31.968 14.088 32.72C13.592 33.456 12.872 34.024 11.928 34.424C10.984 34.808 9.864 35 8.568 35H2.16V17.864H7.488ZM7.896 24.656C8.952 24.656 9.68 24.488 10.08 24.152C10.496 23.816 10.704 23.328 10.704 22.688C10.704 22.032 10.464 21.56 9.984 21.272C9.504 20.984 8.744 20.84 7.704 20.84H5.784V24.656H7.896ZM5.784 27.536V32H8.16C9.248 32 10.008 31.792 10.44 31.376C10.872 30.944 11.088 30.376 11.088 29.672C11.088 29.24 10.992 28.864 10.8 28.544C10.624 28.224 10.312 27.976 9.864 27.8C9.416 27.624 8.808 27.536 8.04 27.536H5.784ZM21.573 21.896V35H17.997V21.896H21.573ZM19.797 16.76C20.325 16.76 20.781 16.888 21.165 17.144C21.549 17.384 21.741 17.84 21.741 18.512C21.741 19.168 21.549 19.624 21.165 19.88C20.781 20.136 20.325 20.264 19.797 20.264C19.253 20.264 18.789 20.136 18.405 19.88C18.037 19.624 17.853 19.168 17.853 18.512C17.853 17.84 18.037 17.384 18.405 17.144C18.789 16.888 19.253 16.76 19.797 16.76ZM32.7495 21.656C34.1575 21.656 35.2855 22.04 36.1335 22.808C36.9815 23.56 37.4055 24.776 37.4055 26.456V35H33.8295V27.344C33.8295 26.4 33.6615 25.696 33.3255 25.232C32.9895 24.752 32.4535 24.512 31.7175 24.512C30.6295 24.512 29.8855 24.888 29.4855 25.64C29.0855 26.376 28.8855 27.44 28.8855 28.832V35H25.3095V21.896H28.0455L28.5255 23.576H28.7175C29.0055 23.128 29.3575 22.768 29.7735 22.496C30.1895 22.208 30.6535 22 31.1655 21.872C31.6775 21.728 32.2055 21.656 32.7495 21.656Z" fill="white"/>
<path d="M45.3309 21.656C46.1309 21.656 46.8509 21.816 47.4909 22.136C48.1309 22.456 48.6749 22.936 49.1229 23.576H49.2189L49.5069 21.896H52.5309V35.024C52.5309 36.272 52.2829 37.32 51.7869 38.168C51.3069 39.016 50.5789 39.656 49.6029 40.088C48.6269 40.536 47.4189 40.76 45.9789 40.76C45.0509 40.76 44.1869 40.704 43.3869 40.592C42.6029 40.48 41.8349 40.28 41.0829 39.992V37.136C41.6269 37.36 42.1709 37.544 42.7149 37.688C43.2749 37.848 43.8429 37.96 44.4189 38.024C45.0109 38.104 45.6029 38.144 46.1949 38.144C47.1229 38.144 47.8109 37.896 48.2589 37.4C48.7229 36.904 48.9549 36.16 48.9549 35.168V34.904C48.9549 34.632 48.9629 34.352 48.9789 34.064C49.0109 33.776 49.0349 33.52 49.0509 33.296H48.9549C48.5069 33.984 47.9709 34.48 47.3469 34.784C46.7229 35.088 46.0189 35.24 45.2349 35.24C43.6829 35.24 42.4669 34.648 41.5869 33.464C40.7229 32.264 40.2909 30.6 40.2909 28.472C40.2909 27.032 40.4909 25.808 40.8909 24.8C41.2909 23.776 41.8669 23 42.6189 22.472C43.3869 21.928 44.2909 21.656 45.3309 21.656ZM46.4589 24.56C45.8989 24.56 45.4269 24.712 45.0429 25.016C44.6749 25.304 44.3949 25.744 44.2029 26.336C44.0269 26.912 43.9389 27.64 43.9389 28.52C43.9389 29.832 44.1469 30.816 44.5629 31.472C44.9789 32.112 45.6269 32.432 46.5069 32.432C46.9709 32.432 47.3709 32.376 47.7069 32.264C48.0429 32.136 48.3149 31.936 48.5229 31.664C48.7469 31.376 48.9149 31.008 49.0269 30.56C49.1389 30.112 49.1949 29.568 49.1949 28.928V28.496C49.1949 27.552 49.0989 26.792 48.9069 26.216C48.7149 25.64 48.4189 25.224 48.0189 24.968C47.6189 24.696 47.0989 24.56 46.4589 24.56ZM61.6704 21.656C62.8864 21.656 63.9264 21.888 64.7904 22.352C65.6704 22.816 66.3504 23.488 66.8304 24.368C67.3104 25.248 67.5504 26.328 67.5504 27.608V29.336H59.1024C59.1344 30.344 59.4304 31.136 59.9904 31.712C60.5664 32.288 61.3584 32.576 62.3664 32.576C63.2144 32.576 63.9824 32.496 64.6704 32.336C65.3584 32.16 66.0704 31.896 66.8064 31.544V34.304C66.1664 34.624 65.4864 34.856 64.7664 35C64.0624 35.16 63.2064 35.24 62.1984 35.24C60.8864 35.24 59.7264 35 58.7184 34.52C57.7104 34.024 56.9184 33.28 56.3424 32.288C55.7664 31.296 55.4784 30.048 55.4784 28.544C55.4784 27.008 55.7344 25.736 56.2464 24.728C56.7744 23.704 57.5024 22.936 58.4304 22.424C59.3584 21.912 60.4384 21.656 61.6704 21.656ZM61.6944 24.2C61.0064 24.2 60.4304 24.424 59.9664 24.872C59.5184 25.32 59.2544 26.016 59.1744 26.96H64.1904C64.1904 26.432 64.0944 25.96 63.9024 25.544C63.7264 25.128 63.4544 24.8 63.0864 24.56C62.7184 24.32 62.2544 24.2 61.6944 24.2Z" fill="#9B51E0"/>
</svg>
