<svg width="26" height="25" viewBox="0 0 26 25" fill="none" xmlns="http://www.w3.org/2000/svg">
<g clip-path="url(#clip0_117_378)">
<path d="M11.9266 7.23198H13.9485V9.25385H11.9266V7.23198ZM11.9266 11.2757H13.9485V17.3413H11.9266V11.2757ZM12.9376 2.17732C7.35723 2.17732 2.82825 6.7063 2.82825 12.2866C2.82825 17.867 7.35723 22.396 12.9376 22.396C18.5179 22.396 23.0469 17.867 23.0469 12.2866C23.0469 6.7063 18.5179 2.17732 12.9376 2.17732ZM12.9376 20.3741C8.47936 20.3741 4.85011 16.7449 4.85011 12.2866C4.85011 7.82843 8.47936 4.19918 12.9376 4.19918C17.3958 4.19918 21.025 7.82843 21.025 12.2866C21.025 16.7449 17.3958 20.3741 12.9376 20.3741Z" fill="white"/>
</g>
<defs>
<clipPath id="clip0_117_378">
<rect width="24.2624" height="24.2624" fill="white" transform="translate(0.806396 0.155451)"/>
</clipPath>
</defs>
</svg>
