<svg width="42" height="42" viewBox="0 0 42 42" fill="none" xmlns="http://www.w3.org/2000/svg">
<path d="M40.9505 1.04927C40.5732 0.672373 40.1024 0.40275 39.5865 0.268133C39.0705 0.133516 38.528 0.138764 38.0147 0.283337L3.0782 10.1372C2.49038 10.3029 1.96716 10.6442 1.57848 11.1153C1.18979 11.5864 0.954167 12.1649 0.90309 12.7736C0.852012 13.3822 0.987917 13.9919 1.29264 14.5212C1.59736 15.0505 2.05639 15.4742 2.60836 15.7356L17.2209 22.6574L27.2113 12.6669C27.4926 12.3856 27.8742 12.2276 28.272 12.2276C28.6699 12.2276 29.0515 12.3856 29.3328 12.6669C29.6141 12.9483 29.7722 13.3298 29.7722 13.7277C29.7722 14.1255 29.6141 14.5071 29.3328 14.7884L19.3424 24.7788L26.2641 39.3914C26.5039 39.9055 26.8858 40.3403 27.3647 40.6444C27.8435 40.9484 28.3995 41.1091 28.9667 41.1074C29.0526 41.1074 29.1391 41.1038 29.2262 41.0966C29.8359 41.0489 30.4161 40.8145 30.8878 40.4253C31.3596 40.0361 31.6999 39.5111 31.8626 38.9215L41.7164 3.985C41.8608 3.47173 41.866 2.92925 41.7314 2.41331C41.5968 1.89737 41.3272 1.42656 40.9505 1.04927Z" fill="#9B51E0"/>
</svg>
