<svg width="139" height="67" viewBox="0 0 139 67" fill="none" xmlns="http://www.w3.org/2000/svg">
<path d="M15.476 15.728C18.516 15.728 21.06 16.016 23.108 16.592C25.188 17.136 26.74 18.048 27.764 19.328C28.82 20.576 29.348 22.272 29.348 24.416C29.348 25.696 29.14 26.864 28.724 27.92C28.308 28.976 27.7 29.84 26.9 30.512C26.132 31.184 25.188 31.616 24.068 31.808V32.048C25.22 32.272 26.26 32.672 27.188 33.248C28.116 33.824 28.852 34.656 29.396 35.744C29.94 36.832 30.212 38.272 30.212 40.064C30.212 42.144 29.7 43.936 28.676 45.44C27.684 46.912 26.244 48.048 24.356 48.848C22.468 49.616 20.228 50 17.636 50H4.82V15.728H15.476ZM16.292 29.312C18.404 29.312 19.86 28.976 20.66 28.304C21.492 27.632 21.908 26.656 21.908 25.376C21.908 24.064 21.428 23.12 20.468 22.544C19.508 21.968 17.988 21.68 15.908 21.68H12.068V29.312H16.292ZM12.068 35.072V44H16.82C18.996 44 20.516 43.584 21.38 42.752C22.244 41.888 22.676 40.752 22.676 39.344C22.676 38.48 22.484 37.728 22.1 37.088C21.748 36.448 21.124 35.952 20.228 35.6C19.332 35.248 18.116 35.072 16.58 35.072H12.068ZM43.646 23.792V50H36.494V23.792H43.646ZM40.094 13.52C41.15 13.52 42.062 13.776 42.83 14.288C43.598 14.768 43.982 15.68 43.982 17.024C43.982 18.336 43.598 19.248 42.83 19.76C42.062 20.272 41.15 20.528 40.094 20.528C39.006 20.528 38.078 20.272 37.31 19.76C36.574 19.248 36.206 18.336 36.206 17.024C36.206 15.68 36.574 14.768 37.31 14.288C38.078 13.776 39.006 13.52 40.094 13.52ZM65.999 23.312C68.815 23.312 71.071 24.08 72.767 25.616C74.463 27.12 75.311 29.552 75.311 32.912V50H68.159V34.688C68.159 32.8 67.823 31.392 67.151 30.464C66.479 29.504 65.407 29.024 63.935 29.024C61.759 29.024 60.271 29.776 59.471 31.28C58.671 32.752 58.271 34.88 58.271 37.664V50H51.119V23.792H56.591L57.551 27.152H57.935C58.511 26.256 59.215 25.536 60.047 24.992C60.879 24.416 61.807 24 62.831 23.744C63.855 23.456 64.911 23.312 65.999 23.312Z" fill="black"/>
<path d="M91.1619 23.312C92.7619 23.312 94.2019 23.632 95.4819 24.272C96.7619 24.912 97.8499 25.872 98.7459 27.152H98.9379L99.5139 23.792H105.562V50.048C105.562 52.544 105.066 54.64 104.074 56.336C103.114 58.032 101.658 59.312 99.7059 60.176C97.7539 61.072 95.3379 61.52 92.4579 61.52C90.6019 61.52 88.8739 61.408 87.2739 61.184C85.7059 60.96 84.1699 60.56 82.6659 59.984V54.272C83.7539 54.72 84.8419 55.088 85.9299 55.376C87.0499 55.696 88.1859 55.92 89.3379 56.048C90.5219 56.208 91.7059 56.288 92.8899 56.288C94.7459 56.288 96.1219 55.792 97.0179 54.8C97.9459 53.808 98.4099 52.32 98.4099 50.336V49.808C98.4099 49.264 98.4259 48.704 98.4579 48.128C98.5219 47.552 98.5699 47.04 98.6019 46.592H98.4099C97.5139 47.968 96.4419 48.96 95.1939 49.568C93.9459 50.176 92.5379 50.48 90.9699 50.48C87.8659 50.48 85.4339 49.296 83.6739 46.928C81.9459 44.528 81.0819 41.2 81.0819 36.944C81.0819 34.064 81.4819 31.616 82.2819 29.6C83.0819 27.552 84.2339 26 85.7379 24.944C87.2739 23.856 89.0819 23.312 91.1619 23.312ZM93.4179 29.12C92.2979 29.12 91.3539 29.424 90.5859 30.032C89.8499 30.608 89.2899 31.488 88.9059 32.672C88.5539 33.824 88.3779 35.28 88.3779 37.04C88.3779 39.664 88.7939 41.632 89.6259 42.944C90.4579 44.224 91.7539 44.864 93.5139 44.864C94.4419 44.864 95.2419 44.752 95.9139 44.528C96.5859 44.272 97.1299 43.872 97.5459 43.328C97.9939 42.752 98.3299 42.016 98.5539 41.12C98.7779 40.224 98.8899 39.136 98.8899 37.856V36.992C98.8899 35.104 98.6979 33.584 98.3139 32.432C97.9299 31.28 97.3379 30.448 96.5379 29.936C95.7379 29.392 94.6979 29.12 93.4179 29.12ZM123.841 23.312C126.273 23.312 128.353 23.776 130.081 24.704C131.841 25.632 133.201 26.976 134.161 28.736C135.121 30.496 135.601 32.656 135.601 35.216V38.672H118.705C118.769 40.688 119.361 42.272 120.481 43.424C121.633 44.576 123.217 45.152 125.233 45.152C126.929 45.152 128.465 44.992 129.841 44.672C131.217 44.32 132.641 43.792 134.113 43.088V48.608C132.833 49.248 131.473 49.712 130.033 50C128.625 50.32 126.913 50.48 124.897 50.48C122.273 50.48 119.953 50 117.937 49.04C115.921 48.048 114.337 46.56 113.185 44.576C112.033 42.592 111.457 40.096 111.457 37.088C111.457 34.016 111.969 31.472 112.993 29.456C114.049 27.408 115.505 25.872 117.361 24.848C119.217 23.824 121.377 23.312 123.841 23.312ZM123.889 28.4C122.513 28.4 121.361 28.848 120.433 29.744C119.537 30.64 119.009 32.032 118.849 33.92H128.881C128.881 32.864 128.689 31.92 128.305 31.088C127.953 30.256 127.409 29.6 126.673 29.12C125.937 28.64 125.009 28.4 123.889 28.4Z" fill="#9B51E0"/>
</svg>
